<svg width="128" height="68" xmlns="http://www.w3.org/2000/svg" xmlns:xlink="http://www.w3.org/1999/xlink"><defs><filter x="-5%" y="-10%" width="110%" height="120%" filterUnits="objectBoundingBox" id="a"><feMorphology radius="1" in="SourceAlpha" result="shadowSpreadOuter1"/><feOffset dy="3" in="shadowSpreadOuter1" result="shadowOffsetOuter1"/><feGaussianBlur stdDeviation=".5" in="shadowOffsetOuter1" result="shadowBlurOuter1"/><feColorMatrix values="0 0 0 0 0 0 0 0 0 0 0 0 0 0 0 0 0 0 0.1 0" in="shadowBlurOuter1" result="shadowMatrixOuter1"/><feOffset in="SourceAlpha" result="shadowOffsetOuter2"/><feGaussianBlur stdDeviation="2" in="shadowOffsetOuter2" result="shadowBlurOuter2"/><feColorMatrix values="0 0 0 0 0 0 0 0 0 0 0 0 0 0 0 0 0 0 0.08 0" in="shadowBlurOuter2" result="shadowMatrixOuter2"/><feMerge><feMergeNode in="shadowMatrixOuter1"/><feMergeNode in="shadowMatrixOuter2"/></feMerge></filter><rect id="b" x="0" y="0" width="120" height="60" rx="4"/></defs><g fill="none" fill-rule="evenodd"><g transform="translate(4 4)"><use fill="#000" filter="url(#a)" xlink:href="#b"/><use fill="#FFF" xlink:href="#b"/></g><g fill-rule="nonzero"><path d="M71.499 26.77c.229-1.074.196-2.267.331-3.333l-.122.03-.077.467c-.244 1.944-2.154 2.531-3.567 3.531a15.888 15.888 0 0 0 1.747-.529c.711-.266 1.258-.897 1.62-1.448.057.352-.16.82.068 1.281m-.379 4.368c.188.392.388.752.838.894.375.122 1.038-.168 1.43-1.632.186.308.28.557.556.812 1.225 1.196 2.162-.674 3.261-.875.135-.258.206-.62.223-.91-.384.015-.739.316-1.192.184-.13-.042-.282-.107-.291-.302.183-1.824-.145-3.712-1.414-4.971-.573 1.567.23 3.186.302 4.766.35-1.108.082-2.255-.12-3.324.85 1.163 1.068 2.588.926 4.115-.129.83-.876.785-1.212.548-1.314-1.028-1.137-3.099-1.755-4.32-.305.601-.065 1.263.067 1.841.175.733.73 2.16-.055 2.868-.503.448-1.053.087-1.24-.357-.483-1.166-.594-2.403-.842-3.664l-.12-.102c-.074.271-.157.598-.124.911.084.581.34 2.082.62 3.06-.365.882-.902 1.01-1.176.956-.603-.268-.425-.977-.435-1.485-1.373.764-2.781 1.583-3.928 1.927-2.7.811-6.054 1.437-8.752.158-.974-.475-1.787-1.416-1.767-2.55-.02-.117-.148-.182-.27-.166-1.1.402-1.33 1.61-1.688 2.543-.39 1.008-1.329.325-1.405-.068-.124-1.484 1.315-2.408 2.15-3.368.61-.693.91-1.514.993-2.47-.469.29-1.132.408-1.643.578-.31.16-.28.719-.374 1.04l1.463-.454.045-.015c-.521 1.394-2.363 1.859-2.793 3.407-.206.779-.223 2.011.38 2.593.248.209.716.408 1.076.193.722-.708.577-1.72 1.168-2.47.185-.232.447-.543.678-.456l.135.707c.35 1.391 1.852 2.17 3.134 2.452 3.289.537 6.594-.224 9.37-1.583.59-.277 1.078-.657 1.652-.922.045.764.32 1.315.783 1.405.346.066.88-.269 1.346-1.494M23.082 42.48a.593.593 0 0 1-.187.166c-.732.488-2.352.206-2.845-.442-.254-.366-.331-.911-.33-1.415 0-.385.049-.863.269-1.223.494-.775 2.487-.436 3.04.275.508.748.31 2.3.053 2.639m-7.649-1.598c-.085-.004-.13-.068-.13-.145v-1.564c.573-.187 1.445-.202 1.706.227.22.352.206 1.06-.05 1.305-.333.29-1.415.196-1.526.177m7.236-2.206c-1.154-.213-2.493-.052-3.256.718-.6.596-.869 2.447-.03 3.45h-.005l.013.008.068.082c.032.04.056.088.049.133-.164.452-.76.448-.956.322-.79-.626-1.017-1.704-1.687-2.137.346-.211.722-.463.942-.831.19-.417.196-1.051-.159-1.392-.287-.322-.866-.436-1.533-.436H14.29c-.376 0 .144.083.144.422.063 1.561.01 4.575.01 4.575h1.232c.003-.12-.307-.127-.36-.32 0 0-.023-1.668-.023-1.774-.013-.113.082-.113.082-.113.34-.018.613-.06.802.183.185.253.95 1.949 1.974 2.242.613.151 1.269-.125 1.717-.474l.061-.053c.86.442 2.128.395 2.948-.084 1.254-.724 1.372-2.27.997-3.495-.186-.607-.697-.907-1.206-1.026m4.185 4.584-.022-1.469c.792-.987 1.568-2.024 1.902-3.198h-.864c-.377 0 .141.083.141.422-.066.717-.76 1.587-1.374 2.312l-1.622-2.734h-1.217l-.027.024c-.006.095.239.06.455.368.62.913 1.217 1.875 1.747 2.848 0 .51.014 1.758.014 1.758h1.22c0-.17-.327-.141-.353-.33m31.835-1.975c.407-.963.546-1.76.546-1.76.28.528.733 1.76.733 1.76h-1.28Zm3.183 1.735c-.874-1.398-1.49-2.936-2.094-4.428H58.57l-.026.023c0 .043.447.164.337.754-.176.878-.57 1.85-1.662 4.03l-.078.176c-.01.01-.01.014.082.014h.994l.025-.023c0-.09-.417-.09-.349-.411.1-.356.419-.993.634-1.493h1.63c.312.589.585 1.217.947 1.766.043.05.087.12.118.147.034.02.156.015.223.015.163.006.967 0 .967 0l.033-.024c.004-.081-.272-.096-.574-.546m-5.826-.335c-.611.526-1.998.285-2.837.201v-3.664c.34-.117.546-.125 1.15-.1.642.028 1.51.22 1.847.792.382.637.507 2.193-.16 2.77m-7.42-1.803c-.09-.004-.125-.068-.125-.145v-1.564c.567-.187 1.436-.202 1.699.227.222.352.205 1.06-.047 1.305-.336.29-1.417.196-1.528.177m8.523-.878c-.474-1.639-2.608-1.41-4.345-1.41h-.613c-.337 0 .07.065.144.338.05 1.976.004 3.59.004 3.59-.004.17-.004.343-.004.517-.018.369-.35.506-.59.35-.797-.625-1.014-1.703-1.685-2.136.342-.212.722-.464.942-.832.187-.417.192-1.051-.16-1.392-.288-.322-.866-.436-1.533-.436h-1.824c-.374 0 .144.083.144.422.069 1.561.008 4.576.008 4.576h1.231c.006-.12-.311-.128-.36-.32 0 0-.018-1.669-.027-1.775 0-.113.09-.113.09-.113.345-.017.61-.06.8.184.188.252.953 1.948 1.975 2.241.128.035.26.052.398.043.367.012.718-.125 1.026-.313 1.231.059 2.594.255 3.6-.517 1.066-.721 1.038-1.937.779-3.017m-11.323 2.476a.613.613 0 0 1-.187.166c-.735.488-2.354.206-2.852-.442-.246-.366-.328-.911-.32-1.415-.004-.385.046-.863.268-1.223.484-.775 2.486-.436 3.03.275.513.748.319 2.3.061 2.639m-.381-3.804c-1.156-.213-2.497-.052-3.254.718-.708.696-.948 3.086.457 3.85.854.48 2.173.446 3.008-.047 1.248-.724 1.364-2.27.994-3.495-.19-.607-.694-.907-1.205-1.026m21.004-.06c-.007.091.323.118.362.339.216 1.126.126 3.608.126 3.608-1.373-1.14-2.491-2.537-3.613-3.921-.069-.064-.249-.05-.354-.05h-.74l-.035.024c-.005.096.191.084.408.338.115.146.191.32.198.472.034.526.013.9-.005 1.5-.011.598-.091 2.44-.091 2.502l.028.148c.034.03.157.014.223.014h.607l.026-.024c0-.089-.308-.096-.346-.41-.021-.163-.041-.75-.06-1.282-.016-.689.01-1.217.045-1.826 1.142 1.328 3.745 3.794 3.918 3.936.117.08.119.014.119.014.123-1.685.064-3.672.172-5.405h-.956l-.032.024Zm-21.255-9.633c.495.732.81 1.87.145 2.83-.545-.697-.416-1.95-.145-2.83m-2.081 2.888c-.491-.822-.378-2.068 0-2.914.441.82.763 2.12 0 2.914m5.48-.891c.254-1.706-.46-3.381-1.385-4.472-.17.922-.044 3.385.159 4.916.522-1.119-.015-2.26.076-3.429.302.452.472.898.66 1.404.31.823.107 1.922-.545 2.63-.404.426-.974.67-1.502.492-.199-.065-.376-.278-.376-.278s.138-.355.305-.945c.302-1.287.08-2.406-.772-3.8-.696 1.447-.833 3.378-.27 4.84-.584.6-1.34.305-1.491.065.756-1.395.602-3.384-.304-4.85-.66 1.309-.909 3.198-.427 4.833-.743.684-1.656 1.055-2.52 1.471 1.11-.064 2.058-.148 2.844-.754.283.327.618.587 1.053.587.515 0 .969-.339 1.237-.587.581.61 1.42.523 1.804.299.895-.514 1.313-1.491 1.454-2.422m23.112 10.306c.41-.963.548-1.76.548-1.76.287.528.728 1.76.728 1.76h-1.276Zm3.191 1.735c-.882-1.398-1.494-2.936-2.093-4.428H71.59l-.03.023c0 .043.445.164.328.754-.161.878-.569 1.85-1.645 4.03l-.086.176c-.006.01-.008.014.088.014h.99l.03-.023c0-.09-.423-.09-.351-.411.097-.356.406-.993.632-1.493h1.631c.313.589.586 1.217.952 1.766.034.05.078.12.109.147.037.02.16.015.228.015.158.006.965 0 .965 0l.027-.024c0-.081-.264-.096-.564-.546m4.55-4.404c0 .09.328.117.368.338.212 1.126.118 3.608.118 3.608-1.364-1.14-2.482-2.537-3.605-3.921-.064-.064-.247-.05-.352-.05h-.747l-.024.024c-.008.096.188.084.4.338.11.146.186.32.202.472.034.526.005.9 0 1.5-.018.598-.099 2.44-.099 2.502l.026.148c.043.03.153.014.228.014h.606l.025-.024c.002-.089-.313-.096-.355-.41-.011-.163-.029-.75-.054-1.282a24.18 24.18 0 0 1 .044-1.826c1.146 1.328 3.75 3.794 3.923 3.936.111.08.122.014.122.014.118-1.685.056-3.672.161-5.405h-.953l-.033.024Zm-38.915-.024h-.959l-.033.023c0 .091.306.096.344.413.032.233.04 1.315.056 1.874v1.977s-.011.357-.132.71c-.155.473-.898.988-1.451.988-.82 0-1.849-.365-1.411-1.79-.136-.045-.187.152-.404.234-.563.196-1.448.19-2.046 0a77.476 77.476 0 0 1-.023-1.856V38.76l-.024-.155c-.044-.021-.163-.013-.226-.013h-.965l-.037.023c0 .091.311.096.35.413.017.121.03.45.043.819.023 1.234.05 2.559-.037 3.742h2.958s-.067.816.228 1.175c.405.487 1.093.478 1.74.29.964-.29 2.179-1.104 2.266-2.107.01-.547.014-1.11.014-1.67l.012-2.517-.026-.156c-.05-.019-.168-.011-.237-.011m35.444-5.002h.056c1.01.03 1.921.091 2.83-.286.78-.435 1.055-1.141 1.272-1.847.6-2.042 0-4.156-1.56-5.546-.423 1.298.107 2.632.22 3.89.075.435.005.925.107 1.345.46-1.318.111-2.596-.124-3.804l-.006-.088c.765.982 1.335 1.904 1.263 3.095-.204 2.105-2.52 2.635-4.058 3.241m-6.518 9.565c-.033-.23-.062-1.315-.071-1.877l.01-2.518-.028-.155c-.05-.02-.163-.013-.228-.013h-.968l-.036.023c0 .091.314.096.345.413.034.233.067 1.315.078 1.874l-.006 2.125c-.005.165-.005.361-.005.4 0 .039 0 .127.04.148.033.03.151.014.216.014h.97l.028-.024c.001-.088-.308-.095-.345-.41m-.836-9.92c-.41.198-.932.27-1.38.403-.427.142-.436.698-.572 1.038.408-.176.886-.26 1.326-.378.419-.178.456-.708.626-1.062m-52.727.354c.25-.049.415-.184.58-.521.479-.998.742-2.24 1.583-2.43.131.106.098.311.138.49.271 1.352 1.606 1.977 2.697 2.212 3.76.746 7.346-.323 10.223-2.788l.042-.03c-.161.918.407 1.277.844 1.198.595-.103.836-.797 1.041-1.237a8.26 8.26 0 0 0 .278-.724c.052-.167.098-.328.124-.495l-.137.083c-.403.313-.485.854-.85 1.205-.142.124-.372.215-.578.158-.28-.098-.346-.34-.357-.589.006-.226.053-.453.053-.592V29.4c-2.3 1.967-5.024 3.093-8.081 3.221-1.861-.026-3.778-.214-4.886-1.782-.2-.343-.275-.75-.368-1.131-.285-.108-.615.155-.811.344-.784.718-.811 1.807-1.552 2.522-.374.195-1.006-.198-.999-.814.02-.868.606-1.568 1.3-2.131 1.08-.88 1.984-2.01 2.184-3.283-.5.219-1.115.313-1.661.43-.311.142-.358.553-.456 1.01.449-.148.987-.217 1.482-.36l.006.028c-.462 1.105-1.628 1.516-2.438 2.369-.787.846-.985 2.192-.522 3.136.276.544.628.694 1.12.633m8.701-4.096c.076.398.617.148.8-.172.04.056.083.09.157.11.078.007.208-.008.293-.224a.644.644 0 0 0-.015-.537l-.035.209a.233.233 0 0 1-.226.189c-.119.004-.093-.134-.112-.193-.142.046-.096.26-.351.397-.097.049-.258.101-.328-.016-.058-.126.046-.243.062-.355-.166.112-.267.37-.245.592m12.178 4.26c.806-.011 2.052-.189 2.502-.378.826-.446 1.11-1.202 1.299-2.098.157-.756-.062-1.237.448-1.58.212-.128.124-.528.172-.841a.166.166 0 0 0-.128-.068c-.604.195-.568.827-.638 1.36-.306 1.826-1.912 2.988-3.39 3.496l-.265.108Zm-.757-1.817.022-.41c.076-.822-.937-1.155-1.12-1.881.03-.222.135-.412.286-.586.341-.317.752-.43 1.234-.286.555.174.756.72.831 1.249-.437 1.96-2.607 2.904-4.15 3.707l.145-.01c.998-.133 1.7-.28 2.488-.56.797-.294 1.353-1.206 1.623-1.968.317-.941.487-2.308-.22-3.125-.389-.382-1.039-.547-1.537-.302-.524.23-.926.781-.991 1.382-.14 1.123.51 2.131 1.389 2.79m-14.6-3.46a82.361 82.361 0 0 0 6.557-1.607c.239-.083.817-.168.78-.526a128.118 128.118 0 0 1-7.064 1.668l-.139.203c-.044.056-.222.25-.133.262m11.763-1.054c-.223-.199-.548-.37-.803-.489-.147.23-.343.508-.39.81.26.22.532.337.803.504.233-.314.322-.627.39-.825m-4.237 6.826c.44-.215.924-.28 1.382-.405.365-.225.415-.654.547-1.02-.42.215-.927.271-1.38.42-.447.132-.42.676-.549 1.005m.74 7.036c.398-.963.542-1.76.542-1.76.285.528.731 1.76.731 1.76h-1.272Zm3.175 1.735c-.87-1.398-1.485-2.936-2.09-4.428h-1.208l-.028.023c0 .043.448.164.336.754-.17.878-.57 1.85-1.652 4.03l-.082.176c-.013.01-.014.014.082.014h.985l.035-.023c0-.09-.418-.09-.351-.411.098-.356.412-.993.636-1.493h1.628c.309.589.581 1.217.954 1.766.035.05.075.12.105.147.039.02.16.015.227.015.154.006.973 0 .973 0l.028-.024c0-.081-.268-.096-.578-.546m33.257-17.043c-2.393.73-4.956 1.52-7.458 2.08l-.255.621c2.516-.701 5.092-1.39 7.51-2.313l.203-.388Zm-4.106 3.052a1.04 1.04 0 0 0-.172.277c-.067.145-.056.409.081.5.145.083.443.022.584-.27.086.034.156.067.3.008.241-.103.233-.488.233-.732-.11.087-.035.283-.174.377-.135.076-.257-.068-.257-.174-.076.116-.132.328-.29.41-.084.045-.223.087-.31.015-.13-.126.046-.277.005-.41m-20.57-1.662c.373-.08.836-.223 1.042-.422.202-.19.383-.461.337-.757-.126-.336-.4.196-.656.064-.126-.09.196-.4.4-.338a.43.43 0 0 0 .106-.24c-.045-.053-.154-.064-.212-.03-.268.152-.496.38-.472.75.052.414.443-.089.654.033-.246.464-.861.625-1.198.94M109.456 35.43s.51.538.696 1.282c0 0-1.108-.087-1.55.256 0 0 .033.31.548.862 0 0 .094.161-.132.306-.211.136-1.285.206-1.324-.924 0 0-.69.84-1.635.715 0 0-.746-.091-.794-.793 0 0 .716.141 1.286-.126 0 0-.02-.463-.674-.92 0 0 .51-.663 1.671-.976 0 0-.226-1.005.104-2.021.34-1.02.507-1.263.594-1.485.095-.212.2-.744.028-1.312 0 0 2.697-.055 2.707 2.831 0 0 .026 1.607-1.525 2.305m-3.036 4.956-1.581-.723 1.555-.51 1.491.682-1.465.551Zm-2.657-2.616c-.907-.053-1.236-.956-1.236-.956-.454.596-1.39.502-1.39.502-.753-.17-.807-.825-.807-.825.83-.166 1.043-.468 1.043-.468-.19-.53-1.086-.822-1.086-.822.539-.854 1.698-1.287 1.698-1.287-.452-.47-.582-.937-.699-1.706-.118-.79.087-2.009.087-2.009.235-1.09.647-1.619 1-2.08.384-.455.764-.4.764-.4.503.056.96.326.96.326.603.352 1.031.87 1.23 1.142.178.273.762 1.583.036 3.227-.73 1.622-1.48 1.933-1.48 1.933 1.127 1.083 1.121 1.571 1.121 1.571-.93 0-1.178.516-1.178.516.228.454.895.624.895.624-.192.747-.958.712-.958.712m-.601 2.398a.567.567 0 0 1-.574-.567c0-.326.258-.573.574-.573.306 0 .56.247.56.573a.562.562 0 0 1-.56.567m-3.19 0-1.511-.607 1.511-.613 1.543.613-1.543.607Zm-2.554-3.354s-.337.902-1.235.956c0 0-.768.035-.956-.712 0 0 .652-.17.889-.623 0 0-.249-.516-1.184-.516 0 0-.008-.488 1.132-1.571 0 0-.765-.311-1.49-1.933-.723-1.645-.145-2.955.046-3.228.19-.271.616-.789 1.224-1.142 0 0 .451-.27.968-.325 0 0 .369-.055.742.4.36.46.793.99 1.012 2.08 0 0 .209 1.218.089 2.009-.112.769-.241 1.236-.697 1.706 0 0 1.147.433 1.694 1.286 0 0-.905.293-1.086.822 0 0 .215.303 1.039.469 0 0-.034.654-.813.825 0 0-.923.093-1.374-.503m-.632 3.354a.579.579 0 0 1-.579-.567c0-.303.274-.555.58-.555.312 0 .55.252.55.555a.55.55 0 0 1-.55.567m-3.269.218-1.482-.548 1.506-.685 1.55.522-1.574.711Zm-2.614-2.21c-.203-.145-.13-.309-.13-.309.514-.543.559-.855.559-.855-.448-.34-1.545-.252-1.545-.252.181-.76.689-1.28.689-1.28-1.558-.729-1.516-2.324-1.516-2.324 0-2.873 2.702-2.828 2.702-2.828a2.221 2.221 0 0 0 .022 1.325c.087.212.267.445.603 1.473.325 1.017.1 2.01.1 2.01 1.155.32 1.66.983 1.66.983-.657.456-.657.925-.657.925.556.272 1.284.125 1.284.125-.054.706-.806.787-.806.787-.932.123-1.635-.703-1.635-.703-.033 1.123-1.104 1.061-1.33.922m22.544-5.132c.578-.194.51-.834.51-.834-.124-.75-.91-.643-.91-.643.497-.582.104-1.036.104-1.036-.385-.48-.991-.17-.991-.17.276-.616-.089-.926-.089-.926-.485-.426-.99.015-.99.015-.016-.601-.45-.738-.45-.738-.51-.222-.886.239-.886.239-.375-1.032-1.111-.502-1.287-.431-.174.102-.192 0-.192 0-.032-1.247-1.094-.778-1.094-.778.29-.623-.215-.974-.215-.974-.545-.337-.998.135-.998.135-.056-.823-.664-.579-.857-.506-.186.041-.586.056-.586.056-1.258-.155-1.723-.083-1.723-.083-1.532-.031-2.822 2.509-2.822 2.509v.022l-.023-.022s-1.31-2.54-2.836-2.51c0 0-.468-.071-1.722.084 0 0-.39-.015-.585-.056-.193-.073-.804-.317-.846.506 0 0-.46-.472-1.006-.135 0 0-.502.35-.213.974 0 0-1.067-.47-1.1.778 0 0-.006.102-.194 0-.17-.072-.904-.6-1.278.43 0 0-.382-.46-.887-.238 0 0-.44.137-.456.738 0 0-.51-.441-.998-.015 0 0-.366.31-.097.925 0 0-.592-.31-.962.17 0 0-.4.455.103 1.037 0 0-.807-.107-.918.643 0 0-.061.64.502.834 0 0-.661.31-.543.841 0 0 .04.53.728.632 0 0-.576.381-.337.914 0 0 .228.623.963.442 0 0-.276.644.151.931 0 0 .402.343.899.006 0 0 .261-.096.37.09 0 0 .187.3-.205.743 0 0 2.137-.18 2.713 3.267h17.491c.58-3.448 2.747-3.267 2.747-3.267-.402-.442-.207-.742-.207-.742.098-.187.361-.09.361-.09.498.336.91-.007.91-.007.413-.287.144-.931.144-.931.742.18.979-.442.979-.442.213-.532-.352-.914-.352-.914.689-.101.717-.632.717-.632.122-.532-.537-.841-.537-.841M91.4 42.803c.034.407.048.783.048.783h16.998s.014-.355.048-.732c.039-.411.086-.734.086-.734H91.31s.056.341.09.684m7.596-16.96s-.546-.012-.906.167c0 0 1.27.34 1.882 1.81.618-1.47 1.88-1.81 1.88-1.81-.337-.179-.908-.167-.908-.167-.055-.192-.268-.343-.268-.343.166-.201.498-.422.498-.422l-1.201-2.852-1.197 2.852s.328.221.492.422c0 0-.217.151-.272.343" fill="#5F6367"/><path d="M71.344 26.541c.232-1.073.198-2.266.332-3.333l-.12.03-.076.469c-.244 1.943-2.156 2.532-3.567 3.53.6-.148 1.202-.325 1.744-.528.711-.266 1.26-.898 1.622-1.45.056.354-.16.822.065 1.282m-.38 4.368c.192.393.392.753.842.896.376.12 1.04-.17 1.432-1.632.185.306.28.555.555.812 1.224 1.193 2.162-.677 3.262-.876.132-.258.204-.62.223-.91-.387.014-.742.317-1.194.184-.13-.042-.28-.106-.29-.301.182-1.825-.145-3.712-1.415-4.97-.573 1.565.23 3.186.301 4.764.352-1.107.083-2.255-.122-3.324.854 1.165 1.072 2.589.93 4.116-.13.83-.876.784-1.213.547-1.313-1.028-1.136-3.098-1.753-4.32-.309.602-.066 1.262.065 1.842.175.732.73 2.16-.057 2.867-.502.45-1.05.087-1.24-.356-.482-1.166-.591-2.403-.842-3.666l-.118-.1c-.074.273-.157.597-.125.91.084.582.34 2.081.621 3.06-.365.883-.902 1.01-1.175.957-.603-.268-.426-.979-.436-1.486-1.373.765-2.782 1.584-3.928 1.928-2.7.81-6.052 1.437-8.753.159-.973-.476-1.787-1.416-1.766-2.551-.02-.118-.148-.181-.269-.167-1.101.402-1.335 1.612-1.689 2.543-.39 1.01-1.331.324-1.405-.066-.126-1.487 1.315-2.408 2.15-3.368.61-.694.909-1.515.992-2.47-.468.29-1.132.407-1.644.578-.311.16-.278.719-.373 1.04l1.463-.455.045-.015c-.521 1.394-2.366 1.86-2.793 3.408-.208.777-.223 2.01.376 2.593.251.208.72.41 1.08.193.722-.707.578-1.72 1.166-2.471.187-.232.445-.543.68-.453l.131.705c.354 1.39 1.856 2.17 3.14 2.452 3.287.537 6.592-.228 9.368-1.584.585-.276 1.078-.657 1.653-.921.044.764.316 1.314.783 1.405.345.063.88-.272 1.343-1.497M22.93 42.253a.552.552 0 0 1-.191.165c-.728.49-2.348.21-2.845-.442-.25-.365-.327-.91-.324-1.412 0-.384.046-.866.263-1.224.495-.775 2.491-.436 3.043.276.51.747.31 2.296.054 2.637m-7.649-1.598c-.087-.004-.13-.068-.13-.144v-1.563c.573-.188 1.445-.205 1.706.226.221.35.206 1.057-.047 1.302-.336.291-1.418.198-1.529.18m7.236-2.207c-1.155-.213-2.493-.051-3.256.715-.604.6-.869 2.45-.03 3.456h-.005l.013.008.069.08c.031.04.055.09.048.13-.163.455-.761.45-.956.327-.79-.63-1.016-1.706-1.687-2.142.344-.208.724-.459.943-.83.189-.414.196-1.05-.161-1.388-.285-.324-.865-.439-1.532-.439h-1.828c-.372 0 .144.083.144.423.067 1.56.013 4.576.013 4.576h1.23c.006-.122-.304-.13-.358-.322 0 0-.02-1.668-.02-1.77-.015-.116.082-.116.082-.116.338-.019.609-.059.8.186.185.247.95 1.946 1.974 2.241.613.152 1.269-.126 1.716-.476l.061-.054c.86.445 2.126.396 2.947-.083 1.255-.723 1.374-2.269.998-3.495-.185-.608-.696-.908-1.205-1.027m4.185 4.584-.02-1.469c.793-.985 1.567-2.027 1.9-3.198h-.863c-.378 0 .14.083.14.423-.066.716-.762 1.585-1.375 2.312l-1.619-2.735h-1.219l-.027.024c-.006.097.235.059.457.369a34.474 34.474 0 0 1 1.745 2.847c0 .51.014 1.758.014 1.758h1.219c0-.17-.33-.14-.352-.331m31.833-1.974c.409-.965.548-1.761.548-1.761.28.53.733 1.76.733 1.76h-1.28Zm3.185 1.735c-.874-1.398-1.493-2.937-2.093-4.428h-1.209l-.026.024c0 .04.45.162.338.752-.177.881-.569 1.851-1.662 4.033l-.077.175c-.013.01-.013.014.081.014h.995l.02-.024c0-.091-.413-.091-.345-.409.098-.358.419-.996.634-1.493h1.63c.313.587.585 1.215.948 1.762.043.049.085.12.118.15.034.02.154.014.223.014.16.006.964 0 .964 0l.036-.024c.003-.082-.273-.097-.575-.546m-5.826-.333c-.61.524-2 .284-2.839.2v-3.665c.343-.117.548-.125 1.148-.098.647.025 1.513.218 1.85.79.384.639.506 2.194-.159 2.773m-7.42-1.806c-.09-.004-.125-.068-.125-.144v-1.563c.567-.188 1.434-.205 1.695.226.224.35.21 1.057-.044 1.302-.334.291-1.42.198-1.527.18m8.523-.877c-.474-1.64-2.608-1.413-4.345-1.413h-.613c-.34 0 .068.065.145.34.05 1.975.003 3.588.003 3.588-.003.174-.003.345-.003.519-.019.37-.35.507-.595.352-.792-.63-1.01-1.707-1.68-2.142.341-.209.721-.46.941-.83.186-.414.193-1.05-.16-1.388-.288-.324-.866-.44-1.533-.44h-1.824c-.376 0 .144.084.144.424.07 1.56.006 4.575.006 4.575h1.234c.007-.121-.311-.129-.362-.322 0 0-.017-1.667-.024-1.77 0-.115.09-.115.09-.115.344-.019.606-.06.798.185.187.248.952 1.946 1.975 2.242.126.033.262.047.395.04.37.011.722-.124 1.03-.31 1.23.057 2.59.255 3.6-.519 1.063-.72 1.033-1.934.778-3.016m-11.323 2.474a.635.635 0 0 1-.185.165c-.737.49-2.36.21-2.854-.442-.246-.365-.328-.91-.32-1.412-.004-.384.044-.866.268-1.224.483-.775 2.485-.436 3.03.276.511.747.317 2.296.061 2.637m-.383-3.804c-1.154-.213-2.493-.051-3.252.715-.708.696-.948 3.09.457 3.856.852.478 2.173.44 3.008-.05 1.246-.724 1.363-2.27.995-3.495-.192-.607-.693-.907-1.208-1.026m21.006-.059c-.008.09.321.12.361.337.217 1.126.127 3.61.127 3.61-1.373-1.143-2.49-2.536-3.613-3.925-.07-.062-.249-.046-.356-.046h-.739l-.034.024c-.005.097.193.083.406.336a.886.886 0 0 1 .2.475c.033.522.013.898-.006 1.5-.009.596-.088 2.438-.088 2.499l.025.15c.034.029.158.014.223.014h.607l.026-.024c0-.092-.31-.098-.346-.41-.02-.163-.04-.75-.057-1.281-.019-.69.003-1.218.038-1.828 1.148 1.327 3.746 3.795 3.922 3.935.117.08.12.015.12.015.121-1.686.06-3.672.17-5.406h-.956l-.03.025ZM45.04 28.756c.496.733.81 1.871.145 2.83-.544-.697-.417-1.95-.145-2.83m-2.08 2.89c-.493-.822-.379-2.07 0-2.916.44.819.762 2.12 0 2.915m5.479-.891c.252-1.707-.46-3.382-1.385-4.472-.17.922-.044 3.385.16 4.915.522-1.119-.016-2.26.075-3.429.302.45.47.897.661 1.404.306.823.106 1.924-.548 2.63-.402.427-.972.671-1.5.492-.202-.065-.376-.277-.376-.277s.139-.354.304-.944c.304-1.29.08-2.407-.77-3.8-.697 1.447-.836 3.376-.27 4.839-.584.6-1.34.305-1.492.064.756-1.395.6-3.381-.303-4.849-.66 1.309-.907 3.198-.428 4.832-.743.685-1.655 1.057-2.52 1.472 1.11-.064 2.059-.148 2.844-.75.284.323.62.583 1.054.583.516 0 .968-.34 1.237-.584.58.609 1.42.52 1.806.295.892-.514 1.31-1.49 1.45-2.421M71.55 41.059c.41-.965.548-1.761.548-1.761.29.53.732 1.76.732 1.76h-1.28Zm3.193 1.735c-.882-1.398-1.495-2.937-2.093-4.428h-1.21l-.032.024c0 .04.445.162.328.752-.16.881-.566 1.851-1.647 4.033l-.087.175c-.003.01-.008.014.092.014h.987l.034-.024c0-.091-.424-.091-.351-.409.095-.358.406-.996.627-1.493h1.635c.313.587.587 1.215.952 1.762.035.049.08.12.11.15.036.02.158.014.227.014.157.006.965 0 .965 0l.028-.024c0-.082-.267-.097-.565-.546m4.55-4.404c0 .09.324.12.367.337.212 1.126.122 3.61.122 3.61-1.369-1.143-2.485-2.536-3.607-3.925-.066-.062-.252-.046-.352-.046h-.749l-.028.024c-.005.097.194.083.4.336a.947.947 0 0 1 .204.475c.038.522.008.898 0 1.5-.018.596-.096 2.438-.096 2.499l.024.15c.042.029.156.014.23.014h.603l.026-.024c.004-.092-.31-.098-.354-.41-.01-.163-.027-.75-.053-1.281-.008-.69.007-1.218.044-1.828 1.147 1.327 3.749 3.795 3.923 3.935.109.08.122.015.122.015.12-1.686.053-3.672.161-5.406h-.954l-.033.025Zm-38.915-.024h-.958l-.036.024c0 .09.307.097.346.414.032.234.041 1.314.056 1.873v1.976s-.013.36-.133.71c-.154.472-.896.986-1.45.986-.819 0-1.849-.363-1.41-1.787-.136-.047-.19.152-.405.235-.563.196-1.448.187-2.046 0a68.069 68.069 0 0 1-.023-1.856v-2.406l-.023-.155c-.046-.024-.163-.015-.228-.015h-.963l-.037.024c0 .09.309.097.348.415.018.118.03.448.044.818.019 1.233.05 2.558-.037 3.741h2.958s-.069.816.227 1.174c.406.487 1.091.477 1.741.292.963-.292 2.178-1.103 2.265-2.11.012-.547.015-1.11.015-1.67l.011-2.515-.026-.155c-.048-.022-.167-.013-.236-.013m35.445-5h.055c1.007.026 1.92.09 2.83-.287.78-.435 1.053-1.142 1.272-1.85.6-2.04 0-4.154-1.559-5.54-.425 1.295.104 2.627.218 3.887.077.434.006.926.108 1.345.46-1.318.112-2.596-.125-3.804l-.009-.087c.768.982 1.34 1.904 1.267 3.095-.205 2.104-2.52 2.633-4.057 3.242m-6.52 9.564c-.03-.233-.06-1.317-.07-1.88l.01-2.516-.028-.154c-.05-.024-.163-.015-.228-.015h-.968l-.036.024c0 .09.312.097.346.414.034.234.064 1.314.076 1.873l-.008 2.123c-.004.166-.004.365-.004.4 0 .038 0 .131.042.15.034.03.152.014.216.014h.971l.028-.024c0-.091-.308-.097-.346-.409m-.835-9.92c-.41.197-.932.267-1.382.4-.424.144-.437.7-.57 1.038.407-.176.883-.259 1.325-.376.419-.18.456-.706.627-1.063m-52.728.357c.25-.051.413-.186.581-.523.476-.998.741-2.24 1.582-2.43.131.106.098.31.139.49.27 1.351 1.607 1.977 2.696 2.213 3.761.743 7.347-.326 10.22-2.79l.045-.03c-.163.92.408 1.278.843 1.198.596-.103.839-.796 1.042-1.237.126-.301.215-.522.278-.724.052-.167.098-.328.123-.494l-.137.083c-.403.313-.484.852-.849 1.204-.144.125-.376.216-.577.16-.28-.099-.349-.34-.358-.59.005-.226.056-.454.056-.592v-.133c-2.304 1.969-5.027 3.093-8.084 3.221-1.863-.025-3.778-.216-4.885-1.782-.2-.343-.276-.749-.371-1.128-.283-.112-.613.154-.807.341-.785.72-.813 1.808-1.554 2.52-.374.198-1.006-.195-.999-.81.019-.87.606-1.57 1.3-2.132 1.08-.88 1.984-2.01 2.184-3.283-.501.218-1.115.313-1.661.43-.311.14-.357.551-.454 1.01.447-.149.985-.217 1.48-.359l.006.026c-.465 1.106-1.63 1.516-2.436 2.369-.787.845-.989 2.192-.523 3.135.275.544.627.696 1.12.637m8.7-4.099c.074.4.617.148.8-.172.039.057.083.09.157.11.078.006.208-.007.293-.224a.644.644 0 0 0-.015-.534l-.035.206c-.019.088-.096.188-.224.188-.12.004-.094-.133-.113-.191-.142.045-.096.259-.351.396-.097.049-.26.102-.327-.016-.06-.127.045-.242.06-.354-.165.112-.269.37-.245.591m12.179 4.26c.801-.011 2.051-.188 2.502-.377.825-.447 1.109-1.203 1.298-2.098.157-.756-.062-1.24.447-1.58.21-.128.125-.529.173-.842a.164.164 0 0 0-.128-.067c-.606.194-.569.826-.637 1.359-.308 1.826-1.913 2.989-3.391 3.495l-.264.11Zm-.76-1.817.024-.41c.074-.823-.94-1.155-1.12-1.881.03-.221.136-.411.287-.586.34-.317.751-.43 1.233-.286.554.173.756.72.83 1.25-.436 1.958-2.606 2.903-4.149 3.707l.143-.012c1.001-.132 1.702-.278 2.49-.56.799-.294 1.354-1.205 1.623-1.968.316-.94.487-2.308-.22-3.125-.39-.38-1.04-.546-1.538-.3-.524.228-.928.78-.99 1.381-.139 1.123.51 2.132 1.387 2.79m-14.597-3.459a82.98 82.98 0 0 0 6.556-1.608c.239-.083.817-.167.778-.526a128.319 128.319 0 0 1-7.062 1.668l-.139.202c-.048.057-.225.248-.133.264M33.026 27.2c-.224-.2-.547-.371-.803-.491-.15.228-.343.51-.39.81.258.22.529.339.803.504.233-.315.322-.628.39-.823m-4.237 6.824c.44-.216.922-.28 1.382-.404.365-.228.415-.655.546-1.02-.42.213-.925.27-1.38.417-.444.134-.418.677-.548 1.007m.738 7.035c.4-.965.542-1.761.542-1.761.287.53.733 1.76.733 1.76h-1.275Zm3.177 1.735c-.872-1.398-1.485-2.937-2.09-4.428h-1.208l-.03.024c0 .04.449.162.335.752-.168.881-.57 1.851-1.65 4.033l-.085.175c-.009.01-.013.014.086.014h.983l.037-.024c0-.091-.419-.091-.352-.409.098-.358.411-.996.64-1.493h1.621c.311.587.587 1.215.958 1.762.035.049.076.12.105.15.037.02.16.014.228.014.154.006.97 0 .97 0l.03-.024c0-.082-.272-.097-.578-.546m33.257-17.042c-2.393.73-4.956 1.52-7.458 2.08l-.256.622c2.517-.702 5.095-1.39 7.508-2.314l.206-.388Zm-4.105 3.052a1.058 1.058 0 0 0-.173.277c-.067.143-.057.407.084.498.142.083.44.024.58-.27.086.035.157.066.301.01.241-.104.233-.489.233-.735-.11.088-.035.284-.171.38-.137.076-.262-.069-.262-.175-.074.115-.127.328-.285.41-.087.045-.228.087-.313.013-.13-.123.045-.275.006-.408m-20.57-1.66c.369-.08.835-.225 1.043-.424.2-.19.381-.461.331-.757-.124-.335-.4.198-.652.064-.125-.09.197-.4.402-.337a.463.463 0 0 0 .104-.241c-.046-.054-.155-.065-.213-.03-.266.151-.494.381-.47.75.052.412.442-.088.655.034-.248.465-.865.626-1.2.94M109.303 35.203s.512.535.697 1.282c0 0-1.108-.087-1.55.257 0 0 .033.307.546.86 0 0 .097.163-.13.306-.212.137-1.284.209-1.323-.922 0 0-.693.84-1.638.715 0 0-.746-.092-.792-.793 0 0 .717.139 1.287-.126 0 0-.024-.464-.674-.922 0 0 .51-.661 1.67-.974 0 0-.23-1.006.104-2.022.34-1.02.507-1.263.594-1.484.095-.214.2-.746.028-1.313 0 0 2.696-.055 2.705 2.831 0 0 .028 1.607-1.524 2.305m-3.039 4.957-1.577-.725 1.556-.51 1.486.68-1.465.555Zm-2.657-2.618c-.904-.056-1.236-.956-1.236-.956-.451.597-1.387.5-1.387.5-.753-.167-.805-.822-.805-.822.83-.167 1.043-.467 1.043-.467-.19-.53-1.09-.824-1.09-.824.542-.856 1.7-1.286 1.7-1.286-.451-.47-.58-.936-.697-1.707-.119-.79.087-2.008.087-2.008.231-1.09.646-1.62 1.001-2.081.382-.455.761-.4.761-.4.505.056.96.327.96.327.6.353 1.032.87 1.228 1.141.182.273.767 1.584.038 3.227-.73 1.622-1.478 1.931-1.478 1.931 1.126 1.086 1.12 1.572 1.12 1.572-.93 0-1.178.52-1.178.52.229.452.894.621.894.621-.19.748-.96.712-.96.712m-.596 2.4a.57.57 0 1 1 0-1.14.56.56 0 0 1 .555.574.56.56 0 0 1-.555.566m-3.192 0-1.513-.61 1.513-.612 1.543.612-1.543.61Zm-2.554-3.356s-.337.9-1.238.956c0 0-.766.036-.952-.712 0 0 .65-.17.888-.621 0 0-.247-.52-1.183-.52 0 0-.011-.486 1.131-1.572 0 0-.765-.309-1.489-1.93-.724-1.644-.148-2.955.045-3.227.19-.272.617-.79 1.224-1.142 0 0 .452-.271.968-.327 0 0 .367-.054.745.4.357.462.79.991 1.01 2.081 0 0 .208 1.218.088 2.008-.111.771-.24 1.237-.696 1.707 0 0 1.146.43 1.694 1.286 0 0-.905.294-1.087.824 0 0 .215.3 1.04.467 0 0-.035.656-.816.822 0 0-.918.097-1.372-.5m-.633 3.356a.579.579 0 0 1-.578-.566c0-.306.27-.556.578-.556.315 0 .551.25.551.556a.551.551 0 0 1-.55.566m-3.27.218-1.48-.547 1.502-.687 1.553.52-1.575.714Zm-2.611-2.21c-.204-.15-.135-.312-.135-.312.517-.541.562-.852.562-.852-.448-.345-1.544-.256-1.544-.256a3.02 3.02 0 0 1 .69-1.279c-1.56-.73-1.518-2.323-1.518-2.323 0-2.873 2.702-2.828 2.702-2.828a2.23 2.23 0 0 0 .023 1.325c.086.211.267.445.602 1.473.325 1.017.1 2.008.1 2.008 1.152.323 1.66.984 1.66.984-.656.46-.656.926-.656.926.553.27 1.281.125 1.281.125-.051.707-.803.79-.803.79-.932.122-1.638-.706-1.638-.706-.03 1.125-1.1 1.062-1.326.925m22.543-5.135c.574-.194.506-.835.506-.835-.123-.749-.906-.642-.906-.642.497-.582.102-1.035.102-1.035-.383-.48-.99-.172-.99-.172.277-.615-.088-.924-.088-.924-.487-.428-.99.014-.99.014-.016-.6-.449-.737-.449-.737-.513-.222-.887.24-.887.24-.374-1.033-1.111-.504-1.286-.432-.175.102-.191 0-.191 0-.034-1.247-1.097-.78-1.097-.78.29-.622-.21-.973-.21-.973-.548-.337-1.002.135-1.002.135-.055-.823-.668-.578-.859-.506-.185.041-.585.056-.585.056-1.259-.156-1.722-.083-1.722-.083-1.533-.03-2.822 2.51-2.822 2.51v.021l-.022-.022s-1.31-2.539-2.836-2.509c0 0-.469-.072-1.722.083 0 0-.391-.015-.586-.056-.193-.072-.803-.317-.847.506 0 0-.458-.472-1.005-.135 0 0-.502.35-.216.973 0 0-1.064-.467-1.098.78 0 0-.005.102-.195 0-.166-.072-.901-.601-1.276.431 0 0-.381-.461-.887-.239 0 0-.44.136-.455.737 0 0-.51-.442-.997-.014 0 0-.37.309-.097.924 0 0-.593-.308-.965.172 0 0-.399.453.106 1.035 0 0-.808-.107-.922.642 0 0-.062.641.503.835 0 0-.662.31-.541.841 0 0 .038.53.724.632 0 0-.572.381-.336.915 0 0 .23.624.965.443 0 0-.275.64.15.93 0 0 .405.344.901.004 0 0 .261-.095.37.092 0 0 .187.3-.21.742 0 0 2.14-.183 2.717 3.267h17.492c.58-3.45 2.747-3.267 2.747-3.267-.404-.441-.207-.742-.207-.742.097-.187.359-.092.359-.092.5.34.913-.004.913-.004.412-.29.14-.93.14-.93.745.181.982-.443.982-.443.21-.533-.352-.915-.352-.915.686-.102.717-.632.717-.632.12-.532-.538-.841-.538-.841m-22.05 9.76c.037.408.048.782.048.782h17s.015-.355.049-.732c.039-.408.082-.735.082-.735H91.16s.055.344.085.685m7.599-16.959s-.546-.01-.906.167c0 0 1.269.34 1.882 1.81.618-1.47 1.88-1.81 1.88-1.81-.337-.178-.907-.167-.907-.167-.056-.193-.27-.343-.27-.343.167-.201.499-.42.499-.42L99.82 22l-1.196 2.853s.328.219.492.42c0 0-.22.15-.272.343" fill="#A6844B"/></g></g></svg>