<svg width="128" height="68" xmlns="http://www.w3.org/2000/svg" xmlns:xlink="http://www.w3.org/1999/xlink"><defs><filter x="-5%" y="-10%" width="110%" height="120%" filterUnits="objectBoundingBox" id="a"><feMorphology radius="1" in="SourceAlpha" result="shadowSpreadOuter1"/><feOffset dy="3" in="shadowSpreadOuter1" result="shadowOffsetOuter1"/><feGaussianBlur stdDeviation=".5" in="shadowOffsetOuter1" result="shadowBlurOuter1"/><feColorMatrix values="0 0 0 0 0 0 0 0 0 0 0 0 0 0 0 0 0 0 0.1 0" in="shadowBlurOuter1" result="shadowMatrixOuter1"/><feOffset in="SourceAlpha" result="shadowOffsetOuter2"/><feGaussianBlur stdDeviation="2" in="shadowOffsetOuter2" result="shadowBlurOuter2"/><feColorMatrix values="0 0 0 0 0 0 0 0 0 0 0 0 0 0 0 0 0 0 0.08 0" in="shadowBlurOuter2" result="shadowMatrixOuter2"/><feMerge><feMergeNode in="shadowMatrixOuter1"/><feMergeNode in="shadowMatrixOuter2"/></feMerge></filter><rect id="b" x="0" y="0" width="120" height="60" rx="4"/></defs><g fill="none" fill-rule="evenodd"><g transform="translate(4 4)"><use fill="#000" filter="url(#a)" xlink:href="#b"/><use fill="#FFF" xlink:href="#b"/></g><g fill-rule="nonzero"><path d="M42.718 41.4c-.221.758-.759 1.961-1.692 4.053l-1.074 2.386c.129-.019.26-.055.416-.055.148 0 .325.036.444.055.147-.527.444-1.296.74-2.007.37-.02.74-.037 1.11-.037.398 0 .787.018 1.186.037l.387.98.39 1.027c.166-.01.425-.055.684-.055.26 0 .583.045.722.055a170.967 170.967 0 0 1-1.379-3.1c-.333-.776-.889-2.071-1.332-3.339a1.1 1.1 0 0 1-.296.047c-.11 0-.204-.02-.306-.047Zm22.92 0c-.222.758-.76 1.961-1.694 4.053l-1.073 2.386c.131-.019.259-.055.416-.055.149 0 .324.036.446.055.147-.527.444-1.296.74-2.007.37-.02.74-.037 1.109-.037.398 0 .786.018 1.184.037l.389.98.388 1.027c.168-.01.427-.055.685-.055.26 0 .584.045.722.055a184.93 184.93 0 0 1-1.38-3.1c-.333-.776-.887-2.071-1.33-3.339a1.1 1.1 0 0 1-.297.047c-.11 0-.204-.02-.305-.047Zm10.616.019c-1.675 0-2.156 1.036-2.156 1.849 0 .768.27 1.24 1.166 1.638.258.111.695.277.953.389.176.073.76.331.76 1.063 0 .667-.483 1.158-1.213 1.158-.547 0-1.01-.14-1.434-1.064h-.13c-.046.443-.055.563-.213 1.044.334.167.935.473 1.73.473 1.694 0 2.35-1.082 2.35-2.026 0-.26-.064-.806-.452-1.222-.269-.296-.547-.397-1.259-.675-.813-.315-1.286-.5-1.286-1.176 0-.545.36-1 1.091-1 .583 0 1.075.28 1.213.806h.13c.083-.35.1-.425.286-.879-.454-.202-.86-.378-1.536-.378Zm-29.505.073c.093.896.093 1.554.093 2.138 0 1.581 0 3.109-.102 4.209.205-.009.463-.055.666-.055.213 0 .435.046.648.055-.074-.75-.092-1.749-.092-3.127 0-.935 0-2.535.101-3.22-.222.028-.453.057-.657.057-.138 0-.482-.038-.657-.057Zm2.876 0c.064 1.194.064 1.323.064 2.535 0 1.785-.01 1.99-.083 3.812.204-.027.427-.055.638-.055.232 0 .435.036.62.055 0-.24-.037-1.434-.037-1.703v-1.313h.222c.5.703 1.072 1.517 1.545 2.248.139.212.342.556.481.768.278-.037.39-.055.75-.055.333 0 .565.028.823.055a36.82 36.82 0 0 1-1.563-2.081c-.139-.195-.343-.5-.481-.694l-.26-.37c.843-.158 1.61-.686 1.61-1.712 0-.39-.148-.768-.425-1.037-.397-.379-.851-.453-1.452-.453-.213 0-1.287.046-1.527.046-.472 0-.713-.027-.925-.046Zm4.846 0c.38 1 .703 1.886.954 2.59.426 1.203.703 2.037 1.036 3.053l.23.704c.13-.027.277-.055.38-.055.102 0 .195.018.351.055.149-.481.325-1.073.455-1.453.36-1.055.406-1.202.878-2.516l.277-.767c.102.295.278.768.38 1.063.101.287.573 1.703.684 2.017.149.416.185.536.528 1.656.083-.01.258-.055.397-.055.13 0 .232.028.37.055.352-1.1.39-1.211.907-2.692.51-1.444.823-2.267 1.378-3.655a1.601 1.601 0 0 1-.84 0c-.334 1.203-.5 1.787-.768 2.581-.436 1.295-.491 1.443-.759 2.147a68.15 68.15 0 0 1-.852-2.414c-.148-.445-.713-2.295-.722-2.314-.128.028-.222.056-.407.056-.165 0-.287-.037-.406-.056-.278 1.129-1.26 3.85-1.352 4.1l-.23.6-.177-.518c-.433-1.286-1.035-3.09-1.322-4.182a3.985 3.985 0 0 1-.648.056c-.222 0-.537-.037-.722-.056Zm13.533 0c.481.805 1.268 2.081 1.739 2.895l.546.945c0 .574-.028 1.785-.055 2.507.175-.019.435-.055.619-.055.213 0 .427.036.64.055-.038-.86-.066-1.36-.066-2.138v-.342c0-.082.055-.184.12-.296.389-.666.75-1.36 1.167-2.026.138-.223.813-1.295.953-1.545a1.05 1.05 0 0 1-.389.057 2.9 2.9 0 0 1-.538-.057c-.666 1.462-.814 1.776-1.6 3.127a38.917 38.917 0 0 1-1.62-3.127 4.501 4.501 0 0 1-.757.057 7.1 7.1 0 0 1-.759-.057Zm-16.52.453c.305 0 .612.047.86.232.324.24.389.573.389.962 0 .6-.342 1.278-1.267 1.278-.24 0-.463-.02-.639-.03v-2.395c.139-.01.482-.047.658-.047Zm-8.775 1.037.87 2.276c-.287.019-.564.037-.851.037-.324 0-.638-.028-.962-.037l.943-2.276Zm22.919 0 .87 2.276c-.286.019-.564.037-.852.037-.323 0-.638-.028-.96-.037l.942-2.276Z" fill="#505967"/><path d="M50.073 19c-.667 2.277-2.276 5.886-5.08 12.158l-3.22 7.16c.389-.054.777-.166 1.249-.166.443 0 .972.112 1.333.167.443-1.583 1.333-3.886 2.22-6.024 1.11-.054 2.22-.11 3.33-.11 1.194 0 2.36.056 3.554.11l1.164 2.943 1.167 3.08c.5-.027 1.278-.166 2.054-.166.778 0 1.748.139 2.166.167-1.25-2.692-3.082-6.884-4.138-9.299-.999-2.33-2.664-6.218-3.995-10.02-.306.084-.583.14-.888.14-.333 0-.612-.056-.916-.14Zm30.9 0c-.664 2.277-2.275 5.886-5.079 12.158l-3.219 7.16c.389-.054.778-.166 1.25-.166.443 0 .97.112 1.333.167.444-1.583 1.33-3.886 2.219-6.024 1.11-.054 2.22-.11 3.331-.11 1.194 0 2.36.056 3.553.11l1.165 2.943 1.166 3.08c.5-.027 1.278-.166 2.055-.166.777 0 1.748.139 2.165.167-1.25-2.692-3.082-6.884-4.137-9.299-.999-2.33-2.665-6.218-3.996-10.02-.306.084-.583.14-.888.14-.333 0-.611-.056-.917-.14Zm-51.538.057C23.83 19.057 19 22.165 19 29.215c0 1.497.333 4.33 2.664 6.689 2.416 2.443 5.274 2.803 7.689 2.803.305 0 .61 0 .916-.026l6.356 4.968c.832-.583 2.137-1.305 3.08-1.721l-6.272-3.887c3.858-1.36 6.273-4.802 6.273-9.493 0-6.66-5.08-9.491-10.27-9.491Zm29.428.222A4.3 4.3 0 0 1 59 20.306c0 .333-.054.693-.138 1.026 1.416-.138 4.08-.194 4.33-.194h1.389c.027 1.083.054 2.054.054 3.08l.029 7.744c0 2.11-.166 4.248-.278 6.357.999-.11 1.416-.167 1.887-.167.333 0 1.221.084 2.027.167-.084-.776-.195-1.693-.195-3.802v-10.27c0-1.055.027-2.11.055-3.11 1.915 0 3.887.029 5.524.195-.083-.444-.138-.693-.138-.999 0-.222.055-.584.138-1.054-2.664.138-5.107.165-7.411.165-2.137 0-5.219-.027-7.411-.165Zm35.066 0c.194 3.58.194 3.968.194 7.603 0 5.359-.028 5.968-.25 11.437.61-.083 1.277-.167 1.915-.167.694 0 1.305.112 1.86.167 0-.723-.11-4.302-.11-5.108V29.27h.666c1.498 2.11 3.22 4.553 4.635 6.746.416.638 1.026 1.666 1.442 2.303.834-.11 1.167-.167 2.249-.167.999 0 1.693.084 2.47.167-1.748-2.192-2.497-3.164-4.69-6.245-.417-.584-1.027-1.5-1.444-2.082l-.776-1.11c2.525-.471 4.829-2.053 4.829-5.135 0-1.166-.445-2.304-1.278-3.108-1.193-1.138-2.553-1.36-4.357-1.36-.639 0-3.857.138-4.58.138-1.416 0-2.138-.084-2.775-.138ZM29.381 20.47c4.552 0 6.522 3.776 6.522 7.8 0 2.303-.278 4.47-1.416 6.218-1.138 1.748-3.024 2.803-5.08 2.803-5.133 0-6.605-4.886-6.605-7.94 0-6.993 3.747-8.88 6.58-8.88Zm70.126.168c.916 0 1.831.138 2.583.693.97.722 1.164 1.72 1.164 2.887 0 1.804-1.026 3.83-3.801 3.83-.723 0-1.389-.056-1.916-.082v-7.19c.416-.026 1.443-.138 1.97-.138Zm-49.462 3.108 2.609 6.828c-.861.057-1.693.112-2.556.112-.97 0-1.914-.084-2.884-.112l2.831-6.828Zm30.901 0 2.61 6.828c-.86.057-1.693.112-2.554.112-.972 0-1.915-.084-2.887-.112l2.831-6.828Zm21.306 17.745c-.412 0-.524.181-.524.513 0 .331.147.447.524.447.381 0 .648-.146.648-.447 0-.3-.176-.513-.648-.513Zm1.466 0c-.415 0-.525.181-.525.513 0 .331.142.447.525.447.378 0 .644-.146.644-.447 0-.3-.177-.513-.644-.513Zm-23.018.087c-.416 0-.527.182-.527.512 0 .334.144.45.527.45.377 0 .644-.149.644-.45 0-.302-.177-.512-.644-.512Zm1.411 0c-.417 0-.527.182-.527.512 0 .334.144.45.527.45.382 0 .64-.149.64-.45 0-.302-.175-.512-.64-.512Zm10.493.036s-.642.45-1.113.81c-.47.357 0 .598 0 .598v3.816h-1.347l-.028-3.275s-.937.685-1.206.893c-.262.208-.116.392.177.392 0 0-.054 2.418-.054 2.989 0 .574-.475 1.23-1.473.932 0 0-.316.061-.053.3.262.238.579.42.933.42.353 0 1.646-.245 1.646-1.652h16.945v-6.104s-.998.658-1.203.837c-.207.179-.147.394.12.362v3.906h-1.463v-3.547s-.3.115-.71.296c-.407.184-1.877.782-1.877 1.59v.933h1.498v.728h-3.554c.003-.171.006-.423.006-.793 0-1.164-.991-1.798-1.874-1.798h-4.109c-.72 0-1.066.175-1.26.374v-3.007Zm16.364.122s-1 .66-1.203.838c-.206.18-.146.393.116.363v4.907h1.087v-6.108Zm-25.768.536s-1.207 1.109-1.32 1.256c-.116.157.287.3.287.3l-.068.433s-.48.249-1.064.643c-.58.39-1.01.888-1.01 1.232 0 .346-.146 1.7-.146 1.7h7.674V44.21s-.693.4-1.132.79c-.436.387.09.534.09.534v1.305H83.2v-4.566Zm20.196 2.453v.6h-.704c0-.386.704-.6.704-.6Zm-9.943.57h4.49c.97 0 .82.51.82.841 0 .178-.008.468-.017.702h-6.142v-1.08c.16-.415.43-.463.849-.463Zm-11.313.09v1.453h-1.141s-.154-.702.26-.97c.414-.273.88-.482.88-.482Zm2.109 2.845c-.413 0-.527.176-.527.509 0 .33.146.45.527.45.378 0 .645-.15.645-.45 0-.303-.174-.51-.645-.51Zm1.467 0c-.413 0-.526.176-.526.509 0 .33.15.45.526.45.383 0 .647-.15.647-.45 0-.303-.174-.51-.647-.51Z" fill="#5C0632"/></g></g></svg>