<svg width="128" height="68" xmlns="http://www.w3.org/2000/svg" xmlns:xlink="http://www.w3.org/1999/xlink"><defs><filter x="-5%" y="-10%" width="110%" height="120%" filterUnits="objectBoundingBox" id="a"><feMorphology radius="1" in="SourceAlpha" result="shadowSpreadOuter1"/><feOffset dy="3" in="shadowSpreadOuter1" result="shadowOffsetOuter1"/><feGaussianBlur stdDeviation=".5" in="shadowOffsetOuter1" result="shadowBlurOuter1"/><feColorMatrix values="0 0 0 0 0 0 0 0 0 0 0 0 0 0 0 0 0 0 0.1 0" in="shadowBlurOuter1" result="shadowMatrixOuter1"/><feOffset in="SourceAlpha" result="shadowOffsetOuter2"/><feGaussianBlur stdDeviation="2" in="shadowOffsetOuter2" result="shadowBlurOuter2"/><feColorMatrix values="0 0 0 0 0 0 0 0 0 0 0 0 0 0 0 0 0 0 0.08 0" in="shadowBlurOuter2" result="shadowMatrixOuter2"/><feMerge><feMergeNode in="shadowMatrixOuter1"/><feMergeNode in="shadowMatrixOuter2"/></feMerge></filter><rect id="b" x="0" y="0" width="120" height="60" rx="4"/></defs><g fill="none" fill-rule="evenodd"><g transform="translate(4 4)"><use fill="#000" filter="url(#a)" xlink:href="#b"/><use fill="#FFF" xlink:href="#b"/></g><path d="M108.707 30.201c.393.466.967.632 1.334.364.23-.169.315-.476.265-.81.218.032.43.098.683.2.125.042.274-.48.08-.499-2.084-.3-3.241 1.382-3.213 1.355.322-.242.588-.447.851-.61m1.189.192c-.275.223-.734.084-1.057-.272.435-.269.804-.396 1.201-.39.081.255.011.54-.144.662m-10.383.742a8.161 8.161 0 0 1 1.796-3.127c3.591-1.515 8.221-1.504 11.691 1.29-2.177-1.11-8.615-2.292-13.487 1.837m-.208 3.85a8.059 8.059 0 0 1-.065-2.584c2.541-2.583 6.344-4.283 10.336-3.448-2.185.005-7.423 1.502-10.271 6.032m1.359 3.181a8.046 8.046 0 0 1-1.021-1.938c1.512-3.2 4.427-5.989 8.345-6.596-1.95.735-6.014 3.726-7.324 8.534m2.466 2.28a8.104 8.104 0 0 1-1.634-1.283c.522-3.384 2.589-6.92 5.895-8.757a1.987 1.987 0 0 0-.335 1.223c-1.927 1.954-3.841 4.988-3.926 8.816m3.058 1.067a8.43 8.43 0 0 1-1.879-.482c.022-3.063 1.015-6.7 2.818-8.93.1.391.29.792.597 1.194 1.427-1.679 3.073-2.866 5.117-3.39-2.787 1.057-7.125 4.432-6.653 11.608M28.836 38.85h3.171c.3 0 .642-.237.77-.555l.13-.31H31.24l.787-1.849h4.413v.006l-1.765 4.104c-.342.755-.879 1.294-1.881 1.241l-7.948-.01 4.048-9.452c.345-.762.877-1.267 1.882-1.246h7.96l-1.899 4.428h-2.741l.774-1.82h-3.476c-.122 0-.268.108-.314.235l-2.244 5.228Zm.7-11.829-7.971.014c-1.014-.028-1.539.493-1.893 1.258-.136.287-.353.788-.622 1.418L14 41.486h8.015c1.013.006 1.542-.497 1.89-1.259.13-.287.357-.792.624-1.417l-6.536-.02 1.345-3.13h3.69l1.146-2.677h-3.683l1.304-3.04c.056-.127.2-.235.325-.235h6.264l1.152-2.688Zm58.99 8.222h3.158c.297 0 .632-.256.77-.56l.564-1.295H89.54c-.123 0-.266.108-.32.235l-.694 1.62Zm.19 2.722H87.31a164.586 164.586 0 0 1-1.005 2.281c-.342.755-.866 1.252-1.881 1.24H82.97l1.494-3.507c1.036-2.433 2.171-5.096 2.558-5.953.34-.755.879-1.29 1.884-1.243l7.953-.002c-1.03 2.43-2.174 5.096-2.566 5.956-.343.751-.875 1.286-1.879 1.241l2.476 3.508h-3.805l-2.369-3.52Zm-40.679-7.182 1.462-.002c-1.032 2.43-2.164 5.096-2.554 5.956-.342.751-.874 1.286-1.876 1.241h-1.866c-.442 1.03-.808 1.854-.992 2.27-.34.754-.875 1.293-1.879 1.24l-1.464.006 1.506-3.514h-3.258c1.037-2.434 2.169-5.097 2.554-5.954.348-.755.877-1.29 1.879-1.243l1.457-.005-1.887 4.461 3.16.004c.3 0 .645-.25.768-.56.362-.892.715-1.779 1.119-2.657.34-.755.862-1.267 1.871-1.243m30.64 10.703 1.472.002c1.007.053 1.537-.486 1.877-1.24l4.063-9.467-1.47.002c-1.007-.046-1.539.488-1.879 1.243-.395.857-1.531 3.52-2.563 5.954l-1.5 3.506Zm-26.792-6.243h3.113c.306 0 .635-.256.77-.56l.562-1.296h-3.436c-.122 0-.268.11-.322.235l-.687 1.621Zm-1.159 2.722 5.115.013c1.034 0 1.531-.49 1.874-1.24.39-.86 1.523-3.527 2.551-5.957l-7.961.002c-1.009-.029-1.531.488-1.876 1.243l-4.038 9.461h1.465c1.019.018 1.534-.486 1.879-1.24.189-.416.548-1.256.991-2.282m9.662 3.518 1.475.005c.999.053 1.528-.486 1.871-1.24.377-.836 1.456-3.386 2.463-5.765.03-.064.436-1.03.468-1.095h3.24l1.1-2.602-7.928-.005c-1.01-.044-1.539.491-1.879 1.246l-.578 1.371 3.224-.01-3.456 8.095Zm13.017-6.24h3.103c.298 0 .64-.256.77-.56l.558-1.295H74.42c-.124 0-.267.108-.319.235l-.696 1.62Zm2.471 2.735h-3.63a236.768 236.768 0 0 1-.995 2.27c-.347.754-.874 1.293-1.914 1.24l-1.421-.002 1.489-3.506c1.036-2.434 2.171-5.097 2.565-5.954.34-.755.819-1.248 1.877-1.243h7.933l-4.05 9.463c-.34.755-.875 1.294-1.882 1.241h-1.424l1.452-3.509Z" fill="#00265D"/></g></svg>