<svg width="128" height="68" xmlns="http://www.w3.org/2000/svg" xmlns:xlink="http://www.w3.org/1999/xlink"><defs><filter x="-5%" y="-10%" width="110%" height="120%" filterUnits="objectBoundingBox" id="a"><feMorphology radius="1" in="SourceAlpha" result="shadowSpreadOuter1"/><feOffset dy="3" in="shadowSpreadOuter1" result="shadowOffsetOuter1"/><feGaussianBlur stdDeviation=".5" in="shadowOffsetOuter1" result="shadowBlurOuter1"/><feColorMatrix values="0 0 0 0 0 0 0 0 0 0 0 0 0 0 0 0 0 0 0.1 0" in="shadowBlurOuter1" result="shadowMatrixOuter1"/><feOffset in="SourceAlpha" result="shadowOffsetOuter2"/><feGaussianBlur stdDeviation="2" in="shadowOffsetOuter2" result="shadowBlurOuter2"/><feColorMatrix values="0 0 0 0 0 0 0 0 0 0 0 0 0 0 0 0 0 0 0.08 0" in="shadowBlurOuter2" result="shadowMatrixOuter2"/><feMerge><feMergeNode in="shadowMatrixOuter1"/><feMergeNode in="shadowMatrixOuter2"/></feMerge></filter><rect id="b" x="0" y="0" width="120" height="60" rx="4"/></defs><g fill="none" fill-rule="evenodd"><g transform="translate(4 4)"><use fill="#000" filter="url(#a)" xlink:href="#b"/><use fill="#FFF" xlink:href="#b"/></g><g fill="#BD8B13" fill-rule="nonzero"><path d="m69.426 20.938-.06-.06-1.079-1.079-1.199 1.199 1.199 1.199z"/><path d="m71.825 20.938-.18-.06-1.079-1.079-1.2 1.199 1.2 1.199z"/><path d="M55.516 20.698c0 .24.24.36.42.42.24.06.48.24.48.6v9.233h10.192v.42c0 .78.24 1.26.66 1.44 0 0 .24.179.6.179.24 0 .48-.06.779-.24l.18-.06-.18-.18c-.24-.24-.42-.959-.42-1.379v-.06h3.778v-8.514s-.48 1.08-2.339 2.458c0 0 .06.36.42.54.48.24.42.54.42.54v3.417h-2.339v-.36c0-.839-.24-2.878-2.518-2.878H63.55c-1.319 0-2.038-.18-2.278-.54l-.06-.179-.06.06c-.24.18-.42.48-.42.84 0 .539.36 1.199.84 1.199h3.118c1.858 0 1.918.839 1.918 1.199v.42h-8.694V18s-1.02 1.38-2.458 2.398v.3h.06ZM49.58 32.33s-.18 1.38 2.638 1.38c2.278 0 2.338-1.44 2.338-1.44v-5.276c0-.36-.06-1.26-1.019-1.26h-7.915v-.599c0-.18.06-.18.24-.24.42-.24.48-.54.42-.66-.9-.539-1.799-1.738-1.799-1.738v4.617h7.975c.24 0 .6.06.6.6v3.717s0 .78-.78.78c-1.26 0-1.2-.66-1.2-.66v-2.039h-6.595v1.62H49.7v1.198h-.12ZM82.738 21.718c0-.42.24-.54.42-.6.18-.06.359-.18.419-.54v-.06c0-.18-.06-.18-.24-.24s-.42-.24-.9-.66c-.839-.659-1.019-1.018-1.019-1.018l-.24-.42V31.07h1.62c-.06-.06-.06-9.114-.06-9.353ZM77.341 32.69l-1.08 1.08-1.078-1.08 1.079-1.08 1.08 1.08Zm-3.657 0 2.638 2.638 2.638-2.638-1.619-1.619 1.919-2.038V18.18s-.78 1.619-2.039 2.458v.06c0 .24.18.36.36.42s.36.24.36.6v6.535l-1.62 1.679-1.618-1.679v-6.535c0-.42.18-.54.36-.6.18-.06.24-.18.36-.42v-.06c-1.2-.84-2.04-2.458-2.04-2.458v11.033l1.92 1.978-1.62 1.5ZM69.067 38.386l.42.24c.06.06.06.06.06.18v3.418H62.23l-1.679 2.098v-5.576l.06-.06.36-.24v-.36h-3.718v.36l.36.24.06.06V49.06l-.06.06-.36.24v.36h3.718v-.36l-.42-.24-.06-.06v-4.617l.42.06.48-.24.24-.06h7.854V47.8l2.759-2.998v-5.876l.06-.06.42-.18v-.36h-3.658v.06ZM108.7 42.524c-.42-1.38-1.439-2.459-2.938-3.298-1.319-.78-3.298-1.08-5.876-1.08H89.873v.36l.42.24v1.2h9.533c1.919 0 3.358.24 4.197.779 1.32.78 2.039 1.859 2.039 3.118 0 .66-.18 1.259-.48 1.859-.36.54-.9 1.019-1.619 1.379-.899.54-2.338.78-4.197.78H94.79v-7.136h-2.698v8.154l-.06.06-.36.18v.36h8.155c1.619 0 2.758-.06 3.718-.24 1.199-.24 2.278-.66 3.118-1.259.899-.6 1.618-1.38 1.918-2.099.24-.6.42-1.199.42-1.858-.12-.54-.24-1.08-.3-1.5ZM77.941 40.185l-8.934 9.294h4.137v-.42h-.54l6.836-7.195z"/><path d="M86.935 49.18v.419h4.017L80.159 38.147l-1.619 1.678 1.8 1.86 1.858 1.858H79.08L77.4 45.342l.36.24.42-.24h5.516l3.597 3.897s-.06.06-.36.06h-.06v-.12h.06ZM55.696 38.626l.359-.24v-.359h-3.597v.359l.359.24.18.18v10.133l-.06.06-.419.18v.36h3.597v-.36l-.36-.18-.059-.06V38.746zM37.648 47.32h-.6l-.48.24c-.06.06-.18.06-.24.06h-8.214c-1.859 0-3.298-.24-4.197-.78-1.44-.779-2.099-1.798-2.099-3.237 0-.6.18-1.26.6-1.799.66-1.02 1.679-1.799 3.178-2.039.42-.06.78-.06 1.019-.06h4.197c.24 0 .24.06.24.06l-.06.36h.3l1.799-2.218h-5.037c-1.2 0-2.099 0-2.698.06-.36 0-.66.06-.9.18-.84.18-1.619.54-2.338.959-1.32.72-2.219 1.619-2.698 2.638-.24.6-.42 1.26-.42 2.039 0 1.859 1.02 3.298 2.938 4.437.84.54 1.859.84 2.938 1.02.84.18 1.919.18 3.298.18h7.615l1.859-2.1Z"/><path d="m33.51 44.562 1.8-2.218H23.376l-1.2 1.799h10.734c.18 0 .24.06.24.06l-.06.36h.42Z"/><path d="m34.41 38.027-1.68 2.098.36.06h.06l.48-.24c.18-.06.24-.18.42-.18h6.596V48.76l-.06.06-.36.24v.36h3.717v-.36l-.36-.24-.06-.06v-8.935h5.817c.24 0 .24.06.24.06v.36h.36l1.798-2.218H34.41Z"/></g></g></svg>