<svg width="128" height="68" xmlns="http://www.w3.org/2000/svg" xmlns:xlink="http://www.w3.org/1999/xlink"><defs><filter x="-5%" y="-10%" width="110%" height="120%" filterUnits="objectBoundingBox" id="b"><feMorphology radius="1" in="SourceAlpha" result="shadowSpreadOuter1"/><feOffset dy="3" in="shadowSpreadOuter1" result="shadowOffsetOuter1"/><feGaussianBlur stdDeviation=".5" in="shadowOffsetOuter1" result="shadowBlurOuter1"/><feColorMatrix values="0 0 0 0 0 0 0 0 0 0 0 0 0 0 0 0 0 0 0.1 0" in="shadowBlurOuter1" result="shadowMatrixOuter1"/><feOffset in="SourceAlpha" result="shadowOffsetOuter2"/><feGaussianBlur stdDeviation="2" in="shadowOffsetOuter2" result="shadowBlurOuter2"/><feColorMatrix values="0 0 0 0 0 0 0 0 0 0 0 0 0 0 0 0 0 0 0.08 0" in="shadowBlurOuter2" result="shadowMatrixOuter2"/><feMerge><feMergeNode in="shadowMatrixOuter1"/><feMergeNode in="shadowMatrixOuter2"/></feMerge></filter><rect id="a" x="0" y="0" width="120" height="60" rx="4"/></defs><g transform="translate(4 4)" fill="none" fill-rule="evenodd"><mask id="c" fill="#fff"><use xlink:href="#a"/></mask><use fill="#000" filter="url(#b)" xlink:href="#a"/><use fill="#FFF" xlink:href="#a"/><path d="M84.901 33.314a2.837 2.837 0 0 1-.573 1.019c-.259.29-.589.515-.99.673-.403.159-.882.238-1.437.238a7.11 7.11 0 0 1-1.03-.06c-.264-.04-.435-.079-.514-.118v-3.525c0-.752.19-1.38.574-1.88.383-.502.957-.752 1.722-.752.766 0 1.364.28 1.793.84.428.562.644 1.304.644 2.228 0 .462-.063.947-.189 1.337m1.644-5.357a4.34 4.34 0 0 0-1.485-.96 4.902 4.902 0 0 0-1.793-.326c-.462 0-.868.056-1.217.169-.35.11-.647.244-.89.395a3.17 3.17 0 0 0-.565.426 2.575 2.575 0 0 0-.238.257v-4.68l-2.772.8v13.067c.08.013.234.036.466.069.23.033.517.063.86.09.344.026.733.052 1.169.079.436.026.891.039 1.366.039 2.15 0 3.772-.498 4.861-1.494 1.09-.998 1.633-2.439 1.633-4.208 0-.805-.125-1.52-.376-2.148a4.543 4.543 0 0 0-1.02-1.575M72.35 32.512c0 .752-.192 1.379-.574 1.88-.383.502-.957.753-1.723.753-.765 0-1.363-.28-1.792-.84-.428-.562-.643-1.304-.643-2.228 0-.463.063-.948.189-1.337.125-.39.315-.729.574-1.02.257-.29.587-.514.99-.673.403-.158.88-.237 1.435-.237.423 0 .766.02 1.03.06.264.039.435.079.514.118v3.524Zm1.426-5.396a12.335 12.335 0 0 0-1.405-.307 11.75 11.75 0 0 0-1.902-.138c-.885 0-1.676.135-2.375.405-.7.27-1.298.65-1.793 1.14a4.901 4.901 0 0 0-1.138 1.771c-.264.693-.396 1.554-.396 2.386 0 .818.125 1.54.377 2.167.25.628.586 1.153 1.01 1.575.422.422.916.739 1.484.95a5.122 5.122 0 0 0 1.802.317c.448 0 .848-.057 1.198-.169.35-.111.646-.24.891-.386a2.94 2.94 0 0 0 .82-.693v.971l2.773-.001v-9.423a5.763 5.763 0 0 0-1.346-.565m-9.042-.054c-.279-.146-.682-.27-1.26-.364a6.66 6.66 0 0 0-1.05-.078c-.607 0-1.168.057-1.682.168-.516.112-.968.237-1.357.376-.39.14-.703.275-.94.407a5.29 5.29 0 0 0-.435.257v9.277h2.77v-7.752c.12-.067.331-.155.635-.268.303-.112.732-.168 1.287-.168.184 0 .38.013.584.04.204.026.368.048.573.108l.049.014c.287-.695.553-1.346.798-1.95l.028-.067m37.493 5.45c0 .752-.191 1.379-.573 1.88-.384.502-.957.753-1.724.753-.764 0-1.362-.28-1.791-.84-.428-.562-.644-1.304-.644-2.228 0-.463.063-.948.188-1.337.127-.39.317-.729.575-1.02.257-.29.588-.514.99-.673.402-.158.88-.237 1.436-.237.421 0 .765.02 1.03.06.263.039.434.079.513.118v3.524Zm2.337-5.06a5.763 5.763 0 0 0-.91-.336 11.725 11.725 0 0 0-3.307-.445c-.885 0-1.677.135-2.377.405-.7.27-1.296.65-1.791 1.14a4.886 4.886 0 0 0-1.138 1.771c-.264.693-.396 1.554-.396 2.386 0 .818.125 1.54.375 2.167.251.628.588 1.153 1.01 1.575.423.422.918.739 1.486.95a5.122 5.122 0 0 0 1.801.317c.45 0 .848-.057 1.198-.169.35-.111.646-.24.89-.386a2.916 2.916 0 0 0 .822-.693v.971l2.773-.001v-9.423a8.458 8.458 0 0 0-.436-.229M91.33 23c-.424 0-.786.146-1.09.436a1.42 1.42 0 0 0-.456 1.068c0 .423.153.783.457 1.08.303.296.665.445 1.089.445.435 0 .804-.149 1.107-.445.304-.297.456-.657.456-1.08 0-.422-.152-.778-.456-1.068A1.542 1.542 0 0 0 91.33 23m-1.377 14.104h2.772V26.671l-2.772.8v9.633ZM47.05 31.44c.239-.643.482-1.291.727-1.94l.676-1.794c.207-.546.39-1.014.549-1.406.158-.391.272-.657.338-.797.067.14.18.406.339.797.16.392.342.86.547 1.406l.677 1.793c.246.65.488 1.298.727 1.94h-4.58Zm7.686.482c-.332-.867-.663-1.702-.995-2.507-.333-.805-.638-1.548-.917-2.233a64.426 64.426 0 0 0-.756-1.795 47.06 47.06 0 0 0-.538-1.186c-.292-.657-.419-.952-.419-.952H47.57s-.128.295-.42.952a64.12 64.12 0 0 0-1.294 2.98c-.277.686-.584 1.43-.915 2.234-.332.805-.664 1.64-.996 2.507a537.29 537.29 0 0 0-.995 2.623 134.25 134.25 0 0 0-.935 2.559h2.926l1.135-3.063h6.53l1.136 3.063h2.926a127.07 127.07 0 0 0-.936-2.559 537.29 537.29 0 0 0-.995-2.623M32.563 23a1.52 1.52 0 0 0-1.09.436c-.304.29-.455.646-.455 1.068 0 .423.151.783.456 1.08.303.296.666.445 1.089.445.434 0 .804-.149 1.108-.445.303-.297.456-.657.456-1.08 0-.422-.153-.778-.456-1.068A1.547 1.547 0 0 0 32.563 23m-1.376 14.104h2.77V26.671l-2.77.8v9.633ZM20.035 31.44c.24-.643.482-1.291.728-1.94l.677-1.794c.205-.546.389-1.014.548-1.406.159-.391.272-.657.338-.797.067.14.18.406.338.797.16.392.343.86.549 1.406l.676 1.793c.246.65.488 1.298.727 1.94h-4.58Zm7.687.482c-.331-.867-.664-1.702-.996-2.507-.331-.805-.637-1.548-.915-2.233a64.129 64.129 0 0 0-1.295-2.98c-.292-.658-.419-.953-.419-.953h-3.542s-.127.295-.419.952c-.133.28-.312.675-.538 1.186a68.11 68.11 0 0 0-.756 1.795c-.279.685-.584 1.428-.916 2.233-.331.805-.664 1.64-.996 2.507-.332.867-.663 1.742-.996 2.623-.332.881-.644 1.734-.934 2.559h2.926l1.135-3.063h6.53l1.135 3.063h2.926a134.27 134.27 0 0 0-.935-2.559 537.29 537.29 0 0 0-.995-2.623m14.744-2.843c.285-.695.553-1.346.798-1.95l.028-.067c-.28-.146-.682-.27-1.26-.364a6.66 6.66 0 0 0-1.05-.078c-.607 0-1.168.057-1.682.168-.516.112-.968.237-1.357.376-.39.14-.703.275-.94.407a5.29 5.29 0 0 0-.436.257v9.277h2.772v-7.752c.119-.067.329-.155.634-.268.303-.112.732-.168 1.286-.168.185 0 .38.013.585.04.204.026.368.048.573.108l.049.014" fill="#E81142" fill-rule="nonzero" mask="url(#c)"/></g></svg>