<svg width="128" height="68" xmlns="http://www.w3.org/2000/svg" xmlns:xlink="http://www.w3.org/1999/xlink"><defs><filter x="-5%" y="-10%" width="110%" height="120%" filterUnits="objectBoundingBox" id="a"><feMorphology radius="1" in="SourceAlpha" result="shadowSpreadOuter1"/><feOffset dy="3" in="shadowSpreadOuter1" result="shadowOffsetOuter1"/><feGaussianBlur stdDeviation=".5" in="shadowOffsetOuter1" result="shadowBlurOuter1"/><feColorMatrix values="0 0 0 0 0 0 0 0 0 0 0 0 0 0 0 0 0 0 0.1 0" in="shadowBlurOuter1" result="shadowMatrixOuter1"/><feOffset in="SourceAlpha" result="shadowOffsetOuter2"/><feGaussianBlur stdDeviation="2" in="shadowOffsetOuter2" result="shadowBlurOuter2"/><feColorMatrix values="0 0 0 0 0 0 0 0 0 0 0 0 0 0 0 0 0 0 0.08 0" in="shadowBlurOuter2" result="shadowMatrixOuter2"/><feMerge><feMergeNode in="shadowMatrixOuter1"/><feMergeNode in="shadowMatrixOuter2"/></feMerge></filter><rect id="b" x="0" y="0" width="120" height="60" rx="4"/></defs><g fill="none" fill-rule="evenodd"><g transform="translate(4 4)"><use fill="#000" filter="url(#a)" xlink:href="#b"/><use fill="#FFF" xlink:href="#b"/></g><g fill-rule="nonzero"><path d="M38.456 28.352v9.12c0 .839-.364 2.094-3.72 2.094-3.355 0-3.72-1.255-3.72-2.095v-9.12h-1.907v9.224c0 2.258 1.854 3.243 5.296 3.243 1.76 0 3.057-.298 4.03-.574v4.122h1.877l-.01-16.014h-1.846ZM21.166 24c-2.01 0-4.99.422-4.99 2.491v1.86H14v1.068h2.176v11.108h1.825V29.42h2.872v-1.067h-2.872V26.72c0-1.589 1.837-1.842 3.165-1.842 2.197 0 3.29.167 3.29 2.595l-.001 13.053h1.824V24.294h-1.823c-1.016 0-1.507-.294-3.29-.294Zm90.83 5.517c-1.103 0-1.999.906-1.999 2.022 0 1.118.896 2.025 1.999 2.025A2.011 2.011 0 0 0 114 31.54a2.01 2.01 0 0 0-2.004-2.022Z" fill="#FF8200"/><path d="M97.435 31.108c1.418-.163 2.688-.242 3.489-.245-.44-1.714-2.453-2.384-5.774-2.384-2.868 0-5.428 1-5.428 1v2.38s1.774-1.44 5.477-1.44c1.214 0 1.883.218 2.236.689ZM53.179 37.09c-.103 1.32-1.512 2.033-2.88 2.033-2.963 0-3.378-1.3-3.378-4.27 0-2.967.58-4.265 3.232-4.265 1.72 0 2.923.71 3.026 2.028.082 1.066.125 1.611.125 2.236 0 .627-.043 1.236-.125 2.238Zm.125-7.884c-1.224-.481-2.155-.732-3.669-.732-4.62 0-6.03 1.758-6.03 6.378 0 4.602 2.072 6.38 6.694 6.38 2.817 0 4.864-1.063 6.32-1.063V24.71h-3.315v4.497Zm53.804-.45-3.315.001v2.007h3.315v-2.008Zm-9.286 8.304c0 1.739-1.612 2.178-2.716 2.178-1.882 0-2.847-.572-2.847-1.803 0-2.078 2.641-3.147 5.563-3.325v2.95Zm9.985-5.108-.963.001c-13.44 0-17.796 2.52-17.796 5.4 0 2.676 2.28 3.85 5.969 3.85 2.38 0 4.79-1.038 6.05-1.038v-6.487c1.572-.201 2.748-.234 2.748-.234v7.5h3.312V35.3c0-2.017.68-3.347.68-3.347Zm-27.193 7.17c-1.369 0-2.776-.713-2.88-2.032-.082-1.002-.124-1.61-.124-2.238 0-.625.042-1.17.125-2.237.103-1.318 1.307-2.027 3.026-2.027 2.65 0 3.232 1.298 3.232 4.264 0 2.97-.415 4.27-3.38 4.27Zm.663-10.648c-1.513 0-2.445.25-3.667.732V24.71h-3.315v15.46c1.455 0 3.5 1.064 6.319 1.064 4.621 0 6.694-1.78 6.694-6.38 0-4.62-1.41-6.38-6.03-6.38Zm-13.03 8.7c0 .84-.272 2.092-2.758 2.092-2.486 0-2.754-1.253-2.754-2.092v-8.407h-3.317v9.224c0 2.258 2.299 3.242 5.742 3.242 3.045 0 5.01-.942 5.986-1.046l.414-.044V28.768h-3.313v8.407Z" fill="#006496"/></g></g></svg>