<svg width="128" height="68" xmlns="http://www.w3.org/2000/svg" xmlns:xlink="http://www.w3.org/1999/xlink"><defs><filter x="-5%" y="-10%" width="110%" height="120%" filterUnits="objectBoundingBox" id="a"><feMorphology radius="1" in="SourceAlpha" result="shadowSpreadOuter1"/><feOffset dy="3" in="shadowSpreadOuter1" result="shadowOffsetOuter1"/><feGaussianBlur stdDeviation=".5" in="shadowOffsetOuter1" result="shadowBlurOuter1"/><feColorMatrix values="0 0 0 0 0 0 0 0 0 0 0 0 0 0 0 0 0 0 0.1 0" in="shadowBlurOuter1" result="shadowMatrixOuter1"/><feOffset in="SourceAlpha" result="shadowOffsetOuter2"/><feGaussianBlur stdDeviation="2" in="shadowOffsetOuter2" result="shadowBlurOuter2"/><feColorMatrix values="0 0 0 0 0 0 0 0 0 0 0 0 0 0 0 0 0 0 0.08 0" in="shadowBlurOuter2" result="shadowMatrixOuter2"/><feMerge><feMergeNode in="shadowMatrixOuter1"/><feMergeNode in="shadowMatrixOuter2"/></feMerge></filter><rect id="b" x="0" y="0" width="120" height="60" rx="4"/></defs><g fill="none" fill-rule="evenodd"><g transform="translate(4 4)"><use fill="#000" filter="url(#a)" xlink:href="#b"/><use fill="#FFF" xlink:href="#b"/></g><g fill="#E23546" fill-rule="nonzero"><path d="M67.634 16.334c-.314.3-.744 1.074-.744 2.16v6.705c0 .556-.206 1.087-.537 1.387-.174.16-1.267 1.152-1.335 1.204h.63c.192-.182 2.18-1.934 2.386-2.172.27-.308.914-1.087.914-2.31l.005-6.443c0-.966.448-1.502.681-1.761.239-.264.992-.916 1.185-1.089l-.622-.006c-.18.165-2.347 2.123-2.563 2.325M62.714 40.744l2.432 2.126h1.632c1.656 0 3.17-.71 4.17-1.71s1.369-2.342 1.369-3.599v-3.486c0-1.17-.734-1.853-.94-2.057-.111-.11-.821-.78-.821-.78v2.676s.78.805.934.968c.725.768.717 2.166-1.57 4.393-.4.391-1.543 1.47-3.115 1.47h-4.091v-.001Z"/><path d="M72.615 28.388s.698.801.973 1.017c.921.725 1.324-.103.732-1.051-.14-.226-.712-.607-1.705.034m-3.132-1.948c-.272.286-.53.988-.53 1.606v1.32h1.336c.522 0 .992-.386 1.358-.724.01-.018 0-1.31 0-1.31s.342.393.647.71c.449-.41 1.606-1.619 2.447-1.619 1.703 0 1.317 2.136.62 2.822-.226.222-1.23 1.144-1.542 1.44-.803.766-2.182.4-2.182-1.579 0 0-1.476 1.403-1.7 1.588-.225.187-.984.994-.984.994v3.478c0 1.668-.507 2.269-1.005 2.73-.222.204-2.015 1.83-2.338 2.115h-.636s1.155-1.007 1.374-1.236c.25-.258.542-.789.542-1.668 0-.223-.028-5.465-.028-5.465H58.32c-2.97 0-3.606-3.296-3.624-4.18-.006-.259 0-2.893 0-3.302 0-.544-.346-1.456-.901-1.738h.837c.097.041.624.255.624 2.275 0 0-.036 2.353-.036 2.478 0 1.025.815 2.2 1.994 2.2l9.666-.008c.01-.26.271-1.248.736-1.768.262-.294 2.337-2.191 2.573-2.375l.614-.006c-.09.085-1.097.986-1.32 1.222"/><path d="M62.29 34.648c0 .466-1.49 1.707-1.578 1.793-.108-.501-.484-1.058-1.596-2.17l1.632-1.632c1.095 1.094 1.541 1.328 1.541 2.01M59.434 25.048c-.446.468-.525.586-.943.836h5.106c1.384 0 1.108-.858.858-1.292-.506-.888-2.113-2.539-2.113-2.539l-2.908 2.995m5.686-9.107c.328.33 1.033 1.215.61 1.638-.375.374-.953.967-.953.967-.027-.214-.571-.729-.571-.729s.005 1.577 0 1.772c-.017.71-.286.914-.286.914s1.315 1.305 1.315 2.982l.002 1.72c0 .345-.087.61-.326.874a67.189 67.189 0 0 1-1.521 1.523 1.429 1.429 0 0 1-1.002.372h-4.534c-.713 0-1.45-.557-1.45-1.115l.011-1.68c.231.267.468.584 1.04.575.446-.008.914-.357 1.04-.484.129-.129 3.429-3.578 3.429-3.578s-1.545-1.432-2.564-2.114c-.497-.33-1.156.089-1.254.526-.314 1.37 0 3.431 0 3.431l-1.252-1.25c-.505-.506-.486-1.648.114-2.248.095-.096 1.01-1.127 2.172-1.127h1.81c1.213 0 2.522 1.188 2.522 1.188s.194-.215.194-.419c0-.622-.004-2.281-.004-2.281-.912-.915-1.036-1.856-.598-2.295C63.88 14.286 64.18 14 64.18 14s-.01.99.94 1.941"/><path d="M53.613 29.693h-.838s.902.496.902 1.771v4.074c0 2.65 2.187 5.102 4.844 5.102h2.219c1.331 0 1.8-.322 2.605-1.037.294-.262.678-.693.82-.85.464-.52.957-.939.957-2.305v-1.334c0-1.153-.668-1.633-.988-1.954a72.554 72.554 0 0 0-.775-.749v2.73s.559.596.807.791c1.15.91.237 2.496-.836 2.496l-4.873.002c-1.875 0-4.22-1.556-4.22-4.247v-2.215c0-2.275-.624-2.275-.624-2.275"/><path d="M58.955 34.656c0 .466-1.491 1.705-1.579 1.792-.106-.501-.484-1.058-1.596-2.17l1.633-1.632c1.093 1.095 1.542 1.328 1.542 2.01M41.884 52.786l-2.61-.002c-.817 0-.754-.686-.825-1.26V47.77s.572-.015 1.201-.015c.726 0 1.632-.105 2.51.391 0 0-.633-1.515-2.515-1.515H38.45v-1.205s0-1.05-.258-1.35l1.712.006c1.497.002 2.657-.023 3.863.769 0 0-.231-1.973-3.13-1.973H35s1.007.84.947 2.543l.06 6.821c0 1.727.67 1.755.67 1.755h5.552c1.262 0 1.701-.885 1.701-1.38l.018-.659c0 .001-.4.828-2.064.828M56.658 52.206v-4.771c0-1.85-1.521-2.344-2.645-2.344-1.484 0-1.936 1.25-2.124 1.671-.336-1.157-1.504-1.686-2.461-1.686-1.79 0-2.249 1.715-2.249 1.715s-.043-1.653-1.495-1.653l-1.416.003s.813.338.813 1.767v5.298c0 1.766.71 1.783.71 1.783h2.349c-.062-.016-.903-.654-.903-1.796v-4.7c.029-.211.383-.91 1.397-.91.556 0 1.18.585 1.169 1.257l-.004 4.364c0 1.78.7 1.784.7 1.784h2.359s-.903-.63-.903-1.799l-.007-4.7c.087-.262.399-.893 1.29-.893.697 0 1.28.588 1.263 1.26 0 0-.005 3.984-.003 4.355.012 1.787.7 1.773.7 1.773 1.23 0 2.36.005 2.36.005s-.9-.621-.9-1.783M67.965 45.807s-.226-.64-1.2-.64c-1.474 0-1.833 1.743-1.833 1.743-.124-1.375-.492-1.785-1.512-1.785l-1.423.002s.827.342.827 1.767l-.005 5.307c0 1.767.707 1.783.707 1.783h2.327c-.06-.016-.898-.655-.898-1.8l.003-4.338c.057-.397.261-.699.575-.903.77-.489 1.829-.37 2.432.356v-1.492ZM78.856 46.129c.797 0 1.391.345 1.391.345l.006-1.338H78.29v-2.027s-.509.9-1.572 1.76c-.664.55-2.064 1.223-2.064 1.223l1.491.028-.003 6.155c0 1.707.716 1.707.716 1.707 1.285 0 2.323.004 2.323.004s-.895-.609-.895-1.726l.004-6.136c.606.004.182.005.566.005M84.534 48.238c.389-.72.694-2.537-.635-2.436-1.525.113-1.231 4.195-1.231 4.195.505-.558 1.271-.671 1.866-1.76m1.442.568c-1.318 1.365-2.353 1.15-3.155 2.159 0 0 .129 1.361 1.154 1.843.357.164 1.807.627 2.743-1.009l-.002 1.555s-.604.645-2.519.645c-2.284 0-3.865-1.805-3.865-4.251 0-2.408 1.29-4.644 3.699-4.655 2.383-.016 3.675 1.899 1.945 3.713M60.756 52.203c0 1.176.904 1.785.904 1.785s-1.12-.005-2.35-.005c0 0-.7.01-.7-1.764v-.01l.004-5.315c0-1.397-.813-1.757-.813-1.757h1.402c.5 0 1.545 0 1.545 1.98l-.003 5.078.01.008ZM59.663 44.417c.606 0 1.098-.469 1.098-1.063 0-.593-.492-1.073-1.098-1.073-.606 0-1.074.48-1.074 1.073 0 .594.468 1.063 1.074 1.063M91.131 51.58c.017.627-.54 1.455-1.732 1.455-1.168 0-1.682-1.255-1.682-1.255l-.009 1.584s.866.626 2.219.626c1.61 0 3.2-1.21 3.15-2.9a2.71 2.71 0 0 0-.54-1.548c-.546-.716-1.531-1.247-2.312-1.698-1.06-.614-.918-1.933.638-1.808 1.165.094 1.658 1.217 1.658 1.217v-1.476s-.898-.708-2.252-.708c-1.408 0-2.659.931-2.624 2.115.031 1.048.457 1.73 1.318 2.356.34.255.746.5 1.216.762.688.377.94.843.952 1.278M71.974 47.085c0 .865-.735 1.252-1.214 1.463-1.398.611-3.185 1.284-3.185 3.315 0 1.358.985 2.137 2.367 2.137 1.06 0 1.593-.548 1.857-1.064.16 1.001.659 1.047.659 1.047 1.221 0 2.34.006 2.34.006s-.912-.619-.912-1.78V47.237c0-1.193-1.32-2.118-2.721-2.118-1.347 0-2.198.65-2.198.65v1.541s.481-1.223 1.699-1.223c1.01 0 1.308.497 1.308.998m-1.268 5.895c-.738 0-1.24-.396-1.24-1.235 0-1.995 1.81-2.405 2.296-2.996l-.003 3.724c-.016.013-.326.507-1.053.507"/></g></g></svg>